<svg id="visual" viewBox="0 0 900 600" width="900" height="600" xmlns="http://www.w3.org/2000/svg" xmlns:xlink="http://www.w3.org/1999/xlink" version="1.1"><rect x="0" y="0" width="900" height="600" fill="#00335a"></rect><defs><linearGradient id="grad1_0" x1="33.3%" y1="0%" x2="100%" y2="100%"><stop offset="20%" stop-color="#ff8989" stop-opacity="1"></stop><stop offset="80%" stop-color="#ff8989" stop-opacity="1"></stop></linearGradient></defs><defs><linearGradient id="grad1_1" x1="33.3%" y1="0%" x2="100%" y2="100%"><stop offset="20%" stop-color="#ff8989" stop-opacity="1"></stop><stop offset="80%" stop-color="#ce6b91" stop-opacity="1"></stop></linearGradient></defs><defs><linearGradient id="grad1_2" x1="33.3%" y1="0%" x2="100%" y2="100%"><stop offset="20%" stop-color="#91578d" stop-opacity="1"></stop><stop offset="80%" stop-color="#ce6b91" stop-opacity="1"></stop></linearGradient></defs><defs><linearGradient id="grad1_3" x1="33.3%" y1="0%" x2="100%" y2="100%"><stop offset="20%" stop-color="#91578d" stop-opacity="1"></stop><stop offset="80%" stop-color="#4f467a" stop-opacity="1"></stop></linearGradient></defs><defs><linearGradient id="grad1_4" x1="33.3%" y1="0%" x2="100%" y2="100%"><stop offset="20%" stop-color="#00335a" stop-opacity="1"></stop><stop offset="80%" stop-color="#4f467a" stop-opacity="1"></stop></linearGradient></defs><defs><linearGradient id="grad2_0" x1="0%" y1="0%" x2="66.7%" y2="100%"><stop offset="20%" stop-color="#ff8989" stop-opacity="1"></stop><stop offset="80%" stop-color="#ff8989" stop-opacity="1"></stop></linearGradient></defs><defs><linearGradient id="grad2_1" x1="0%" y1="0%" x2="66.7%" y2="100%"><stop offset="20%" stop-color="#ce6b91" stop-opacity="1"></stop><stop offset="80%" stop-color="#ff8989" stop-opacity="1"></stop></linearGradient></defs><defs><linearGradient id="grad2_2" x1="0%" y1="0%" x2="66.7%" y2="100%"><stop offset="20%" stop-color="#ce6b91" stop-opacity="1"></stop><stop offset="80%" stop-color="#91578d" stop-opacity="1"></stop></linearGradient></defs><defs><linearGradient id="grad2_3" x1="0%" y1="0%" x2="66.7%" y2="100%"><stop offset="20%" stop-color="#4f467a" stop-opacity="1"></stop><stop offset="80%" stop-color="#91578d" stop-opacity="1"></stop></linearGradient></defs><defs><linearGradient id="grad2_4" x1="0%" y1="0%" x2="66.7%" y2="100%"><stop offset="20%" stop-color="#4f467a" stop-opacity="1"></stop><stop offset="80%" stop-color="#00335a" stop-opacity="1"></stop></linearGradient></defs><g transform="translate(900, 0)"><path d="M0 540.8C-51.6 510.5 -103.3 480.1 -147.4 453.7C-191.5 427.2 -228.1 404.7 -279.2 384.3C-330.3 363.8 -396.1 345.4 -414.2 300.9C-432.4 256.5 -402.9 186.1 -405.2 131.6C-407.4 77.2 -441.2 38.6 -475 0L0 0Z" fill="#2d3d6c"></path><path d="M0 432.7C-41.3 408.4 -82.6 384.1 -117.9 362.9C-153.2 341.8 -182.4 323.8 -223.4 307.4C-264.3 291.1 -316.9 276.3 -331.4 240.8C-345.9 205.2 -322.4 148.9 -324.1 105.3C-325.9 61.7 -352.9 30.9 -380 0L0 0Z" fill="#704f86"></path><path d="M0 324.5C-31 306.3 -62 288 -88.4 272.2C-114.9 256.3 -136.8 242.8 -167.5 230.6C-198.2 218.3 -237.6 207.2 -248.5 180.6C-259.4 153.9 -241.8 111.7 -243.1 79C-244.4 46.3 -264.7 23.1 -285 0L0 0Z" fill="#b16091"></path><path d="M0 216.3C-20.7 204.2 -41.3 192 -59 181.5C-76.6 170.9 -91.2 161.9 -111.7 153.7C-132.1 145.5 -158.4 138.1 -165.7 120.4C-172.9 102.6 -161.2 74.5 -162.1 52.7C-162.9 30.9 -176.5 15.4 -190 0L0 0Z" fill="#e9788e"></path><path d="M0 108.2C-10.3 102.1 -20.7 96 -29.5 90.7C-38.3 85.4 -45.6 80.9 -55.8 76.9C-66.1 72.8 -79.2 69.1 -82.8 60.2C-86.5 51.3 -80.6 37.2 -81 26.3C-81.5 15.4 -88.2 7.7 -95 0L0 0Z" fill="#ff8989"></path></g><g transform="translate(0, 600)"><path d="M0 -491C52.3 -491.5 104.6 -492 157.3 -484.1C210 -476.2 263.2 -459.8 312.1 -429.6C361 -399.3 405.7 -355.2 415.8 -302.1C425.9 -249.1 401.5 -187.2 416.6 -135.3C431.6 -83.5 486.2 -41.8 540.8 0L0 0Z" fill="#2d3d6c"></path><path d="M0 -392.8C41.8 -393.2 83.7 -393.6 125.8 -387.3C168 -380.9 210.5 -367.9 249.7 -343.7C288.8 -319.5 324.6 -284.1 332.7 -241.7C340.8 -199.3 321.2 -149.7 333.3 -108.3C345.3 -66.8 389 -33.4 432.7 0L0 0Z" fill="#704f86"></path><path d="M0 -294.6C31.4 -294.9 62.7 -295.2 94.4 -290.5C126 -285.7 157.9 -275.9 187.3 -257.8C216.6 -239.6 243.4 -213.1 249.5 -181.3C255.6 -149.4 240.9 -112.3 249.9 -81.2C259 -50.1 291.7 -25.1 324.5 0L0 0Z" fill="#b16091"></path><path d="M0 -196.4C20.9 -196.6 41.8 -196.8 62.9 -193.6C84 -190.5 105.3 -183.9 124.8 -171.8C144.4 -159.7 162.3 -142.1 166.3 -120.8C170.4 -99.6 160.6 -74.9 166.6 -54.1C172.7 -33.4 194.5 -16.7 216.3 0L0 0Z" fill="#e9788e"></path><path d="M0 -98.2C10.5 -98.3 20.9 -98.4 31.5 -96.8C42 -95.2 52.6 -92 62.4 -85.9C72.2 -79.9 81.1 -71 83.2 -60.4C85.2 -49.8 80.3 -37.4 83.3 -27.1C86.3 -16.7 97.2 -8.4 108.2 0L0 0Z" fill="#ff8989"></path></g></svg>